<svg width="16" height="16" viewBox="0 0 16 16" fill="none" xmlns="http://www.w3.org/2000/svg">
<path d="M10.1666 8.99998H7.49998C7.36737 8.99998 7.24019 8.9473 7.14643 8.85353C7.05266 8.75976 6.99998 8.63259 6.99998 8.49998V4.49998C6.99998 4.36737 7.05266 4.24019 7.14643 4.14643C7.24019 4.05266 7.36737 3.99998 7.49998 3.99998C7.63259 3.99998 7.75976 4.05266 7.85353 4.14643C7.9473 4.24019 7.99998 4.36737 7.99998 4.49998V7.99998H10.1666C10.2993 7.99998 10.4264 8.05266 10.5202 8.14643C10.614 8.24019 10.6666 8.36737 10.6666 8.49998C10.6666 8.63259 10.614 8.75976 10.5202 8.85353C10.4264 8.9473 10.2993 8.99998 10.1666 8.99998ZM7.99998 1.33331C4.31865 1.33331 1.33331 4.31865 1.33331 7.99998C1.33331 11.6813 4.31865 14.6666 7.99998 14.6666C11.6813 14.6666 14.6666 11.6813 14.6666 7.99998C14.6666 4.31865 11.6813 1.33331 7.99998 1.33331Z" fill="white"/>
</svg>
