<svg width="32" height="32" viewBox="0 0 32 32" fill="none" xmlns="http://www.w3.org/2000/svg">
<path d="M16 6.12665C14.5472 4.79079 12.6456 4.04938 10.672 4.04932C9.6274 4.0504 8.59331 4.25806 7.62926 4.66034C6.66522 5.06262 5.79024 5.65158 5.05468 6.39332C1.91735 9.54398 1.91868 14.472 5.05735 17.6093L14.8333 27.3853C15.06 27.784 15.4973 28.0413 16 28.0413C16.2064 28.0393 16.4095 27.9889 16.5929 27.8942C16.7763 27.7995 16.9349 27.6631 17.056 27.496L26.9427 17.6093C30.0814 14.4706 30.0813 9.54398 26.94 6.38798C26.2048 5.64761 25.3306 5.05985 24.3674 4.65849C23.4043 4.25714 22.3714 4.05012 21.328 4.04932C19.3545 4.04964 17.453 4.79101 16 6.12665ZM25.0547 8.27332C27.1387 10.368 27.14 13.64 25.0573 15.724L16 24.7813L6.94268 15.724C4.86001 13.64 4.86135 10.368 6.94001 8.27865C7.95335 7.27065 9.27868 6.71598 10.672 6.71598C12.0653 6.71598 13.3853 7.27065 14.3907 8.27598L15.0573 8.94265C15.1811 9.06658 15.328 9.16489 15.4898 9.23198C15.6515 9.29906 15.8249 9.33358 16 9.33358C16.1751 9.33358 16.3485 9.29906 16.5103 9.23198C16.672 9.16489 16.819 9.06658 16.9427 8.94265L17.6093 8.27598C19.6253 6.26398 23.0413 6.26932 25.0547 8.27332Z" fill="black"/>
</svg>
