<svg width="16" height="16" viewBox="0 0 16 16" fill="none" xmlns="http://www.w3.org/2000/svg">
<path d="M14 5.66667V11.8333C14 12.408 13.7717 12.9591 13.3654 13.3654C12.9591 13.7717 12.408 14 11.8333 14H4.16667C3.59203 14 3.04093 13.7717 2.6346 13.3654C2.22827 12.9591 2 12.408 2 11.8333V5.66667H14ZM11.8333 2C12.408 2 12.9591 2.22827 13.3654 2.6346C13.7717 3.04093 14 3.59203 14 4.16667V4.66667H2V4.16667C2 3.59203 2.22827 3.04093 2.6346 2.6346C3.04093 2.22827 3.59203 2 4.16667 2H11.8333Z" fill="white"/>
</svg>
