<svg width="16" height="16" viewBox="0 0 16 16" fill="none" xmlns="http://www.w3.org/2000/svg">
<path d="M1.33331 4.83335C1.33331 4.25872 1.56159 3.70762 1.96791 3.30129C2.37424 2.89496 2.92534 2.66669 3.49998 2.66669H12.5C12.7845 2.66669 13.0663 2.72273 13.3291 2.83161C13.592 2.9405 13.8309 3.1001 14.032 3.30129C14.2332 3.50248 14.3928 3.74133 14.5017 4.00421C14.6106 4.26708 14.6666 4.54882 14.6666 4.83335V11.1667C14.6666 11.4512 14.6106 11.733 14.5017 11.9958C14.3928 12.2587 14.2332 12.4976 14.032 12.6988C13.8309 12.8999 13.592 13.0595 13.3291 13.1684C13.0663 13.2773 12.7845 13.3334 12.5 13.3334H3.49998C2.92534 13.3334 2.37424 13.1051 1.96791 12.6988C1.56159 12.2924 1.33331 11.7413 1.33331 11.1667V4.83335ZM12.3333 5.16669V5.50002C12.3333 5.63263 12.386 5.75981 12.4798 5.85357C12.5735 5.94734 12.7007 6.00002 12.8333 6.00002C12.9659 6.00002 13.0931 5.94734 13.1869 5.85357C13.2806 5.75981 13.3333 5.63263 13.3333 5.50002V5.16669C13.3333 5.03408 13.2806 4.9069 13.1869 4.81313C13.0931 4.71937 12.9659 4.66669 12.8333 4.66669C12.7007 4.66669 12.5735 4.71937 12.4798 4.81313C12.386 4.9069 12.3333 5.03408 12.3333 5.16669ZM12.8333 10C12.7007 10 12.5735 10.0527 12.4798 10.1465C12.386 10.2402 12.3333 10.3674 12.3333 10.5V10.8334C12.3333 10.966 12.386 11.0931 12.4798 11.1869C12.5735 11.2807 12.7007 11.3334 12.8333 11.3334C12.9659 11.3334 13.0931 11.2807 13.1869 11.1869C13.2806 11.0931 13.3333 10.966 13.3333 10.8334V10.5C13.3333 10.3674 13.2806 10.2402 13.1869 10.1465C13.0931 10.0527 12.9659 10 12.8333 10ZM12.3333 7.83335V8.16669C12.3333 8.2993 12.386 8.42647 12.4798 8.52024C12.5735 8.61401 12.7007 8.66669 12.8333 8.66669C12.9659 8.66669 13.0931 8.61401 13.1869 8.52024C13.2806 8.42647 13.3333 8.2993 13.3333 8.16669V7.83335C13.3333 7.70075 13.2806 7.57357 13.1869 7.4798C13.0931 7.38603 12.9659 7.33335 12.8333 7.33335C12.7007 7.33335 12.5735 7.38603 12.4798 7.4798C12.386 7.57357 12.3333 7.70075 12.3333 7.83335ZM3.16665 4.66669C3.03404 4.66669 2.90686 4.71937 2.81309 4.81313C2.71932 4.9069 2.66665 5.03408 2.66665 5.16669V5.50002C2.66665 5.63263 2.71932 5.75981 2.81309 5.85357C2.90686 5.94734 3.03404 6.00002 3.16665 6.00002C3.29925 6.00002 3.42643 5.94734 3.5202 5.85357C3.61397 5.75981 3.66665 5.63263 3.66665 5.50002V5.16669C3.66665 5.03408 3.61397 4.9069 3.5202 4.81313C3.42643 4.71937 3.29925 4.66669 3.16665 4.66669ZM2.66665 10.5V10.8334C2.66665 10.966 2.71932 11.0931 2.81309 11.1869C2.90686 11.2807 3.03404 11.3334 3.16665 11.3334C3.29925 11.3334 3.42643 11.2807 3.5202 11.1869C3.61397 11.0931 3.66665 10.966 3.66665 10.8334V10.5C3.66665 10.3674 3.61397 10.2402 3.5202 10.1465C3.42643 10.0527 3.29925 10 3.16665 10C3.03404 10 2.90686 10.0527 2.81309 10.1465C2.71932 10.2402 2.66665 10.3674 2.66665 10.5ZM3.16665 7.33335C3.03404 7.33335 2.90686 7.38603 2.81309 7.4798C2.71932 7.57357 2.66665 7.70075 2.66665 7.83335V8.16669C2.66665 8.2993 2.71932 8.42647 2.81309 8.52024C2.90686 8.61401 3.03404 8.66669 3.16665 8.66669C3.29925 8.66669 3.42643 8.61401 3.5202 8.52024C3.61397 8.42647 3.66665 8.2993 3.66665 8.16669V7.83335C3.66665 7.70075 3.61397 7.57357 3.5202 7.4798C3.42643 7.38603 3.29925 7.33335 3.16665 7.33335Z" fill="white"/>
</svg>
